<svg version="1.2" xmlns="http://www.w3.org/2000/svg" viewBox="0 0 1000 1000" width="1000" height="1000">
	<title>7042772-ai</title>
	<style>
		.s0 { fill: #e5bdd9 } 
		.s1 { fill: #4c1c3c } 
		.s2 { fill: #e8c152 } 
		.s3 { fill: #59304d } 
		.s4 { fill: #fffdfa } 
		.s5 { fill: #ed5f77 } 
		.s6 { fill: #db394f } 
		.s7 { fill: #eaccd2 } 
	</style>
	<g id="BACKGROUND">
		<path id="&lt;Path&gt;" class="s0" d="m877.1 500c0 208.3-168.8 377.1-377.1 377.1-208.3 0-377.1-168.8-377.1-377.1 0-208.3 168.8-377.1 377.1-377.1 208.3 0 377.1 168.8 377.1 377.1z"/>
	</g>
	<g id="OBJECTS">
		<g id="&lt;Group&gt;">
			<g id="&lt;Group&gt;">
				<path id="&lt;Compound Path&gt;" fill-rule="evenodd" class="s1" d="m817.4 394.1c18.6-1.8 36.7-3.5 55-2.3 16.1 1.2 29.3 8 40.7 19.2 12.5 12.5 19.5 27.3 20.1 44.9 0.4 13.7-4.2 25.8-12.1 36.6-12 16.7-28.3 27.9-47.1 35.6-13.5 5.5-27.3 9.9-41.8 12.4-17.9 3-35.2 1.3-52.6-3.9-19.3-5.8-36.5-15.6-53.7-25.6-1.1-0.6-2.3-1.4-4.3-2.6 2.5 5.5 4.7 10.1 6.7 14.7 7.9 17.7 12.9 36.4 16.8 55.3 7.3 35.3 7.9 71.1 7.1 107-0.2 7.6-1.1 15.2-1.8 22.9-0.3 2.2-0.5 4 2.2 5.5 3.5 1.9 4.2 6.2 2.1 10.4-0.7 1.4-0.7 2.4 0.2 3.8 2 3.3 2.4 7.2 2.8 11 1.2 9.7 1.4 19.5 3.3 29.1 0.4 1.8-1.2 1.9-2.3 2.7-1.2-2.2-0.9-4.7-1.9-7.2-1 3 0.6 5.9-0.8 8.5-0.2 0.5-1 0.8-2.2 0.5 0-6.4 0-12.8 0-19.3q-0.5 0-0.9 0c-0.5 6.1-1 12.2-1.3 18.3-0.1 2.3-0.7 3.5-3.3 2.9q0-4.9 0-9.8-0.2 0-0.4 0c-0.3 3.4-0.7 6.9-1 10.5-0.9 0.2-1.8 0.4-3 0.6-0.7-12.8 2.5-25.3 2.3-37.9-1.6 6.4-2.3 12.9-3.2 19.4-0.8 6.2-0.4 12.7-3 18.6-0.9-16 0.5-31.8 5.3-47.4-4-1.6-5.9-4.5-5.4-8.9 0.2-2 0.7-3.8 2.4-5 2.1-1.5 2.6-3.6 2.7-5.8 0.6-10.2 1.2-20.4 0.9-30.7-0.4-16.6-0.7-33.3-1.7-49.9-1.3-21.9-4.3-43.5-9.3-65.1 3.9 64.7-10.3 125.4-40 182.9 1.5 1.8 2.5 4.1 2.2 6.8-0.2 3-1.5 5.4-4.3 6.1-2.8 0.7-4.3 2.5-5.5 4.7-6.1 10.5-10 21.8-12.1 33.7-0.2 1.7 0.4 4.8-3.5 4.1q1.1-7 2.3-13.9c-2.1 4-2.7 8.4-3.6 12.6-0.4 2.1-1.3 2.4-3.3 1.9 1.6-12.5 5.5-24.2 11.8-35.7-2.6 1.9-6.8 8.2-8.5 12.5-2.7 6.9-5.6 13.8-6.1 21.3-0.1 1.8-0.7 3.4-3.4 2.3 1.2-12.4 5.5-23.8 11.6-34.5-8.3 10-11.4 22.1-14.3 34.5-1.5 0.3-2.4-0.2-2-1.8 3.6-14.2 6.7-28.6 17.9-39.4 1.1-1 2.1-2.2 3.3-3 3.3-2.1 6.6-3.9 5.9-8.8-0.2-1.4 1.1-3.3 2.7-3.7 3.1-0.6 4-2.9 5.2-5.3 12.8-25.9 21.7-53.1 28.5-81 3.7-15.2 4.9-30.7 6.2-46.2 1.6-19.2 1.7-38.4 0.7-57.6-1-17.6-4.9-34.5-13.2-50.2-2.6-4.8-6-9.1-9.1-13.4-6.5-8.8-9.3-18.6-9.7-29.2-0.7-19.7 3.6-38.7 9.3-57.4 9.2-30.2 23.8-57.5 43.4-82.2 11.1-13.9 23.6-26.1 40.6-32.8 5.5-2.2 11.2-3.6 17.1-2.6 9 1.4 14.5 7.2 18.2 15 4 8.6 5.3 17.9 6.4 27.2 2.8 22-2.1 42.6-11.5 62.4-0.2 0.5-0.4 1-0.7 1.7zm-102.2 102c4.5 3.6 8.8 5.9 13 8.3 16.2 9.1 32 19 50.1 24.2 10.7 3.1 21.3 6.6 32.7 6.5 22.6-0.3 43.6-6.6 64-15.7 14.7-6.5 27.4-16 37.7-28.4 18-21.7 16.5-49.4 0.9-68.4-10.6-13.1-23.5-22.3-40.8-23.6-19.1-1.5-38.1-0.1-57 2.5-1.7 0.2-2.9 0.9-3.7 2.5-15.5 28-35.3 52.5-59.5 73.4-7.6 6.5-15.3 13-24.6 17.1-3.8 1.7-7.8 2.9-12.8 1.6zm-7.6-13.3c0.8-9.6 4.7-18.1 10.3-25.7 22.3-29.9 51.9-49.3 87.4-60.1 2.3-0.7 3.7-1.7 4.9-3.9 10.6-20.2 16.3-41.5 13-64.5-1.2-8.3-2.3-16.7-6.3-24.2-2.7-5.1-6.3-9.1-12.4-10.1-6.1-1.1-11.6 1.1-16.8 3.6-15.4 7.3-26.8 19.2-36.8 32.5-27.2 36.3-44.2 76.8-49 122.1-1 9.4-0.4 18.7 2.7 27.8 0.4 1.3 0.6 3 3 2.5zm95.6-77.7c-1.3 0.2-1.8 0.3-2.3 0.4-27.5 10.2-51.8 25.1-71.1 47.6-6.3 7.3-11.8 15.1-14.4 24.5-0.7 2.8-1.5 5.6-0.5 8.5 0.9 2.8 2.6 3.9 5.6 3.3 4.6-1.1 8.6-3.5 12.4-6.3 21.7-15.8 40.4-34.7 56.1-56.4 4.9-6.8 9.7-13.7 14.2-21.6zm-59.4 314.9c-0.2 2.6 0.8 4.2 3.5 4.2 2.7 0 4.3-1.5 4.3-4 0.1-2.7-1.5-3.9-3.9-3.9-2.5 0-4.2 0.9-3.9 3.7zm-57.6 32.4c0.3 2.3 1.5 3.9 3.9 3.7 2.4-0.2 3.9-1.5 3.8-4.1-0.2-2.4-1.3-3.8-3.8-3.7-2.6 0.1-3.6 1.8-3.9 4.1z"/>
				<path id="&lt;Compound Path&gt;" fill-rule="evenodd" class="s1" d="m296.1 911.9c-1 0.4-1.9 0.7-2.9 1.1-3.1-5.4-4.4-11.4-6.4-17.2 0.1 6 1.7 11.7 3.7 17.3-1.7 1.6-2.6 1.1-3.5-0.8-2.9-6.6-3.9-13.7-4.9-20.7 0-0.5-0.1-1-0.4-1.5 0 8.3 2.1 16.3 4.6 24.1-1.7 1.6-3.5-0.6-5.2 0.6-0.5 0.3-1.4-2.4-2-3.7-3.5-8.5-6.3-17.1-5.9-26.5 0.1-1.5 0.3-3 0.4-4.5 0.3-3.5 2.6-7.2-0.6-10.6-0.4-0.4-0.6-1.6-0.3-2.1 3.2-5.2 0-10-1-14.9-3.5-16.8-3.9-33.8-2.7-50.9 2.2-31.7 10.4-62.4 17.3-93.3 2.1-9.4 4.4-18.6 6.6-27.9 0.2-0.7 0-1.4 0-2.9-3.2 6.2-6 11.8-9.7 16.9-10 13.6-22 24.9-36.8 33.1-5.7 3.1-11.7 5.4-18.3 4.8-9.9-0.9-15.2-7.4-18.3-16.1-4.1-11.7-4.8-23.9-4.2-36.3 0.4-8.1 1.8-16 4.1-24.3-4.1 1.3-8 2.5-11.9 3.6-14.7 4-29.7 5.8-44.9 2.8-4.7-0.9-9.2-2.3-13.5-4.5-10.7-5.8-15.5-16.2-12.5-28 5.9-22.6 19.2-39.9 38.4-52.9 19.6-13.3 41.4-20.9 64.7-24.7 18.7-3.1 37.3-3 55.6 2.6 3.1 0.9 6 2.1 8.8 3.6 6.8 3.5 10.6 9.4 12.4 16.3 2.7 11.3 4.4 22.7 3.6 34.4-2.5 40.6-0.5 81.1 1.2 121.5 1 26 4.1 51.9 8.4 77.5 4.4 25.3 11.5 49.8 21.7 73.5 0.2 0.3 0.2 0.9 0.5 1.1 8.2 5.4 9.2 14.4 11.3 22.7 2.4 8.9 4.2 18 7.2 26.8-2 1-3.9-0.4-5.9 0.2-1.5 0.4-1.6-1.5-1.8-2.5-2.1-9-4.1-18.1-6.2-27.1-0.2-1.2-0.5-2.4-1.1-3.5 1.2 11.1 3.8 21.9 6.9 32.7-2.5 0.8-3.3-0.4-3.8-2.3-3.1-10.4-5.2-20.9-6.2-31.7-0.1-0.5-0.2-1-0.6-1.5-0.7 12.1 2.6 23.5 5.1 35.1-2.3 0.7-3.5 0-4.1-2.1-2.6-10-5.1-20-4.5-30.5 0.2-2.4 0.5-4.6-1.3-6.7-1.1-1.4-1.2-3.5-0.3-4.9 1.2-1.9 0.6-3.3-0.3-4.9-12-20.7-18.3-43.4-23-66.6-7.9-39.5-11.1-79.5-11.3-119.8-0.1-5.1 0-10.2-0.7-15.4-1.8 7.3-3.6 14.5-5.3 21.8-5.1 22.4-10.9 44.6-15 67.1-4.3 23.3-6.9 46.6-4.8 70.3 0.6 6.9 1.6 13.7 2.4 20.6 0.1 0.5 0.1 1.3 0.5 1.4 3 1.7 3.1 4.9 4.4 7.6 3.6 7.5 4.1 15.7 6.3 23.5 1.8 6.4 3.2 13 6 19.2zm-0.6-348c-8.5-4.7-17-5.9-25.6-6.8-12.5-1.4-24.8-0.4-37.2 1.7-25.7 4.5-49.3 13.8-69.7 30.3-13.5 10.8-23.3 24.3-27.7 41.1-2.8 10.4 0.8 17.3 10.7 21.6 6.3 2.6 12.9 3.6 19.7 3.8 16.1 0.3 31.3-4.1 46.2-9.7 1.2-0.5 1.9-1.3 2.3-2.4 11.6-28.6 31.6-50.3 56.1-68.3 7.3-5.3 15-10.2 25.2-11.3zm6.2 26.8c-6.4 10.2-14 18.9-23.1 26-16.9 13.4-35.4 24.3-55.1 33.2-2 0.9-3.1 2.1-3.8 4.2-4.9 14.1-6.2 28.7-5.2 43.4 0.5 7 1.4 14 4.9 20.4 2.6 4.8 6.6 7.3 12.2 6.9 6.8-0.5 12.6-3.8 18-7.5 18.3-12.3 31.7-28.5 39.6-49.2 8.8-23.2 14.9-46.8 13.4-71.8-0.1-1.7 0-3.5-0.9-5.6zm-76 49.2c7.7-3.4 14.4-7.2 21-11.2 14-8.3 28.3-16.4 39.3-28.7 6.2-7.1 13.9-13.4 14.3-24 0.1-3.3-1.5-6-4.9-6.2-3.1-0.2-5.8 1-8.4 2.4-9.7 4.8-17.5 12-25.4 19.2-14.9 13.7-27.2 29.4-35.9 48.5zm116.6 246.9c-1.4 0.2-2 0.9-1.9 2.1 0.2 1.5 0.7 2.9 2.3 2.9 1.3-0.1 1.5-1.3 1.5-2.4 0-1.4-0.5-2.4-1.9-2.6zm-64.1 10q-0.6-7.8-1.3-15.6c-0.9 5.3-0.1 10.5 1.3 15.6zm-0.7-31.5c-1.7 2-0.8 3.4 0.5 4.6 0.7 0.6 1.6 0.4 1.9-0.4 0.6-2-0.7-3-2.4-4.2z"/>
			</g>
			<g id="&lt;Group&gt;">
				<g id="&lt;Group&gt;">
					<g id="&lt;Group&gt;">
						<path id="&lt;Path&gt;" class="s2" d="m288.2 504.1c19.1 8.3 30.3 32.9 22.9 48.6-19-20.3-42.6-31.5-69.7-35.8 7.7-12.7 28.9-20.7 46.8-12.8z"/>
						<path id="&lt;Path&gt;" class="s2" d="m303 568.3c-9.2 11.3-28 16.8-41.5 12.2-1.8-0.6-2.5-1.6-2.7-3.4-0.4-3-0.1-6.1 0.2-9.1 0.2-1.8 1.4-2.4 2.8-3.1 5.2-2.7 7.4-8.6 5.1-13.8-2.4-5.7-9-8.5-14.9-6.4-5.2 1.9-8.2 7.8-6.6 13.2 0.1 0.4 0.1 0.9 0.4 1.2 4.8 4 2.1 9.1 2.2 14.6-11.2-9.6-16.4-21.2-15.5-35.3 0.1-1.5 0.4-3 0.7-4.4 1-4.5 1-4.5 5.7-4.5 11.2 0.1 21.5 3.4 31.4 8.4 9.7 4.8 18.4 10.9 26 18.5 2.6 2.6 4.7 5.5 6.7 8.5 0.8 1.2 1.2 2 0 3.4z"/>
						<path id="&lt;Path&gt;" class="s2" d="m308.1 569.3c-0.8-3.9-3.1-6.7-5.3-9.5-9.8-12.3-22.2-21-36.6-27.2-6.8-2.9-13.8-4.8-21.1-5.8-5.1-0.7-10-0.1-14.8 1-2.7 0.6-2.9-0.3-2.3-2.4 0.7-2.5 2.7-3.6 5.1-4.1 7.3-1.5 14.7-1.1 21.7 0.9 14.6 4.2 28.2 10.6 40.5 19.7 5.6 4.2 10.7 8.9 14.7 14.8 1.2 1.8 2.2 3.6 2.7 5.7 0.7 3.5-0.7 5.8-4.6 6.9z"/>
					</g>
					<g id="&lt;Group&gt;">
						<path id="&lt;Compound Path&gt;" fill-rule="evenodd" class="s3" d="m229.3 530.9c-2.2-0.9-4.6-2.1-4.5-5 0.1-3.4 1.9-6.4 5.2-6.9 4.7-0.9 6.8-4.4 9.7-7.4 11.3-11.7 24.9-16.7 41.1-13.5 24.7 4.9 38.2 25.2 36.1 47.4-0.1 1.3-0.1 2.6-0.5 3.8-1.6 4.7-2.1 9.3-0.7 14.4 1.2 4.4-3 8.1-7.8 7.8-1.7-0.1-2.9 0.3-4.1 1.5-14.6 13.4-31.2 16.1-49.4 8.7-17.2-7-28.4-26.9-25.9-45.3 0.3-1.8 0.6-3.6 0.8-5.5zm18.9 42.6c-0.1-5.5 2.6-10.6-2.2-14.6-0.3-0.3-0.3-0.8-0.4-1.2-1.6-5.5 1.4-11.4 6.6-13.3 5.8-2.1 12.5 0.8 14.9 6.5 2.3 5.2 0.1 11.1-5.2 13.7-1.4 0.7-2.6 1.4-2.8 3.1-0.3 3.1-0.5 6.1-0.2 9.2 0.2 1.7 1 2.7 2.8 3.4 13.4 4.6 32.2-1 41.5-12.2 1.1-1.4 0.8-2.3 0-3.4-2-3-4.2-5.9-6.7-8.5-7.6-7.7-16.3-13.7-26-18.5-9.9-5-20.2-8.3-31.4-8.4-4.8 0-4.8 0-5.7 4.4-0.3 1.5-0.7 3-0.8 4.4-0.8 14.2 4.3 25.7 15.6 35.4zm63.1-21c7.4-15.7-3.8-40.3-22.9-48.7-17.9-7.8-39.1 0.2-46.9 12.9 27.2 4.3 50.8 15.5 69.8 35.8zm-3.1 16.6c3.9-1.1 5.4-3.4 4.7-6.9-0.5-2.1-1.6-4-2.7-5.7-4-5.9-9.1-10.7-14.8-14.9-12.2-9.1-25.8-15.4-40.4-19.6-7-2.1-14.4-2.4-21.7-0.9-2.5 0.5-4.4 1.5-5.2 4.1-0.5 2-0.3 3 2.3 2.4 4.9-1.1 9.8-1.7 14.8-1 7.3 1 14.3 2.8 21.1 5.8 14.4 6.1 26.9 14.8 36.6 27.2 2.3 2.8 4.6 5.6 5.3 9.5z"/>
					</g>
				</g>
				<g id="&lt;Group&gt;">
					<g id="&lt;Group&gt;">
						<path id="&lt;Path&gt;" class="s2" d="m765.6 467.2c-22.2 3.5-41.6 12.7-57.1 29.3-6.1-12.8 3.1-33 18.7-39.8 14.7-6.5 32 0.1 38.4 10.5z"/>
						<path id="&lt;Path&gt;" class="s2" d="m715.1 506.5c1.6-2.5 3.4-4.8 5.5-6.9 6.2-6.3 13.4-11.3 21.3-15.2 8.1-4.1 16.5-6.8 25.7-6.9 3.9 0 3.9 0 4.7 3.7 0.2 1.1 0.5 2.3 0.6 3.5 0.6 11.6-3.6 21.1-12.8 29 0.1-4.5-2.1-8.7 1.8-12 0.3-0.2 0.3-0.6 0.4-1 1.3-4.4-1.2-9.2-5.5-10.8-4.7-1.7-10.2 0.6-12.2 5.3-1.8 4.3 0 9.1 4.3 11.2 1.1 0.6 2.1 1.2 2.3 2.6 0.2 2.5 0.4 5 0.1 7.5-0.1 1.4-0.7 2.2-2.2 2.7-11 3.8-26.4-0.7-34-9.9-0.9-1.2-0.6-1.9 0-2.8z"/>
						<path id="&lt;Path&gt;" class="s2" d="m707.2 504.5c0.4-1.8 1.2-3.3 2.2-4.7 3.2-4.9 7.4-8.7 12-12.2 10-7.4 21.2-12.6 33.1-16.1 5.8-1.6 11.8-2 17.8-0.7 2 0.4 3.6 1.3 4.2 3.4 0.5 1.6 0.3 2.4-1.8 1.9-4-0.9-8-1.4-12.1-0.8-6 0.8-11.8 2.3-17.3 4.7-11.8 5.1-22 12.2-30 22.3-1.8 2.3-3.7 4.6-4.3 7.8-3.2-0.9-4.4-2.8-3.8-5.6z"/>
					</g>
					<g id="&lt;Group&gt;">
						<path id="&lt;Compound Path&gt;" fill-rule="evenodd" class="s3" d="m776.1 483.1c2 15.1-7.1 31.4-21.2 37.2-14.9 6-28.5 3.8-40.4-7.2-1.1-1-2-1.3-3.4-1.2-3.9 0.2-7.4-2.8-6.4-6.4 1.1-4.2 0.8-7.9-0.5-11.8-0.4-1-0.4-2.1-0.5-3.1-1.7-18.2 9.4-34.8 29.6-38.8 13.2-2.6 24.4 1.4 33.7 11 2.3 2.5 4 5.4 7.9 6.1 2.7 0.4 4.1 2.9 4.2 5.6 0.1 2.4-1.8 3.4-3.7 4.2 0.3 1.5 0.5 3 0.7 4.4zm-3.4 1.5c0-1.2-0.3-2.4-0.6-3.6-0.7-3.7-0.8-3.7-4.6-3.7-9.2 0.1-17.6 2.8-25.8 6.9-7.9 3.9-15 8.9-21.3 15.2-2 2.1-3.8 4.4-5.5 6.9-0.6 0.9-0.9 1.7 0.1 2.8 7.5 9.2 22.9 13.7 33.9 10 1.5-0.6 2.1-1.4 2.3-2.8 0.3-2.5 0.1-5-0.2-7.5-0.1-1.4-1.1-2-2.3-2.5-4.3-2.2-6-7-4.2-11.3 2-4.7 7.4-7 12.2-5.3 4.3 1.6 6.7 6.4 5.4 10.9-0.1 0.3-0.1 0.7-0.3 0.9-3.9 3.3-1.7 7.5-1.8 12 9.2-7.9 13.4-17.4 12.7-28.9zm-7.3-17.6c-6.3-10.4-23.7-16.9-38.3-10.5-15.7 6.8-24.8 27-18.8 39.8 15.6-16.6 34.9-25.8 57.1-29.3zm-50.2 35.1c7.9-10.1 18.1-17.2 29.9-22.3 5.6-2.4 11.3-3.9 17.3-4.7 4.1-0.6 8.2-0.1 12.1 0.8 2.2 0.5 2.4-0.3 1.9-1.9-0.6-2.1-2.2-3-4.2-3.4-6-1.2-12-0.9-17.8 0.7-11.9 3.5-23.1 8.7-33.1 16.1-4.6 3.5-8.8 7.3-12 12.2-1 1.4-1.9 2.9-2.3 4.7-0.6 2.8 0.6 4.7 3.8 5.6 0.6-3.2 2.5-5.5 4.4-7.8z"/>
					</g>
				</g>
				<g id="&lt;Group&gt;">
					<g id="&lt;Group&gt;">
						<path id="&lt;Path&gt;" class="s2" d="m763.1 517c-20.2 14.8-34.6 33.8-41.4 58.3-12.5-9.6-13.8-34.2-1.9-49 11.2-13.9 31.7-16.4 43.3-9.3z"/>
						<path id="&lt;Path&gt;" class="s2" d="m733.4 581.8c0.4-3.3 0.9-6.6 1.9-9.7 2.9-9.5 7.4-18 13.2-26 5.9-8.2 12.9-15.2 21.9-20 3.8-2 3.9-2 6.5 1.2 0.9 1.1 1.7 2.1 2.4 3.3 6.7 11.1 7.4 22.6 2.3 35.1-2.2-4.4-6.5-7.5-4.4-12.7 0.2-0.4 0-0.8-0.1-1.2-1-5-5.9-8.6-10.9-7.9-5.7 0.8-9.8 5.9-9.4 11.5 0.4 5.2 4.6 9 10 8.9 1.4 0 2.7 0.1 3.5 1.4 1.6 2.3 3.1 4.7 4.1 7.3 0.5 1.5 0.4 2.6-0.9 3.9-8.9 9.4-26.4 12.8-38.7 7.6-1.4-0.7-1.5-1.5-1.4-2.7z"/>
						<path id="&lt;Path&gt;" class="s2" d="m724.6 583.8c-0.6-1.9-0.5-3.9-0.3-5.8 0.7-6.4 2.9-12.4 5.7-18.2 6.1-12.5 14.4-23.4 24.4-32.9 4.9-4.6 10.7-8 17.2-9.9 2.2-0.6 4.3-0.6 5.9 1.2 1.4 1.4 1.6 2.3-0.8 2.9-4.4 1.2-8.6 2.7-12.4 5.4-5.5 3.9-10.4 8.3-14.7 13.6-9 11-15.4 23.3-18.1 37.4-0.7 3.2-1.4 6.4-0.3 9.9-3.7 0.7-5.8-0.5-6.6-3.6z"/>
					</g>
					<g id="&lt;Group&gt;">
						<path id="&lt;Compound Path&gt;" fill-rule="evenodd" class="s3" d="m781.7 527.3c9.8 13.9 9.1 34.7-1.8 47.6-11.7 13.6-26.2 18.4-43.7 13.7-1.5-0.4-2.7-0.3-4 0.5-3.7 2.3-8.7 1-9.6-3-1-4.7-3.3-8.2-6.6-11.4-0.8-0.8-1.4-1.9-2-2.8-11-17.1-8.6-39.2 9.3-53.6 11.7-9.4 24.9-11.1 38.9-6.4 3.6 1.2 6.8 3.3 11 1.9 2.9-0.9 5.6 0.8 7.1 3.5 1.3 2.2-0.1 4.2-1.6 5.9 1.1 1.4 2.1 2.8 3 4.1zm-2.6 3.2c-0.7-1.2-1.6-2.2-2.4-3.3-2.7-3.2-2.7-3.2-6.5-1.2-9.1 4.8-16 11.8-21.9 20-5.8 8-10.4 16.5-13.3 25.9-0.9 3.2-1.5 6.5-1.8 9.7-0.2 1.3-0.1 2.1 1.4 2.7 12.2 5.3 29.8 1.8 38.7-7.5 1.2-1.3 1.4-2.4 0.8-3.9-1-2.7-2.5-5-4-7.4-0.9-1.3-2.1-1.3-3.6-1.3-5.3 0.1-9.5-3.8-9.9-8.9-0.4-5.7 3.7-10.8 9.3-11.5 5.1-0.7 9.9 2.9 11 7.9 0 0.4 0.2 0.8 0.1 1.1-2.2 5.3 2.2 8.3 4.4 12.8 5-12.5 4.3-24-2.3-35.1zm-16.2-13.6c-11.6-7.1-32.1-4.6-43.3 9.3-12 14.8-10.7 39.4 1.9 48.9 6.8-24.4 21.2-43.4 41.4-58.2zm-31.7 60.5c2.7-14.1 9.2-26.4 18.2-37.4 4.3-5.3 9.2-9.7 14.7-13.6 3.7-2.7 8-4.3 12.4-5.4 2.4-0.6 2.1-1.5 0.8-2.9-1.7-1.8-3.7-1.8-5.9-1.2-6.6 1.9-12.3 5.3-17.2 9.9-10 9.5-18.4 20.4-24.4 32.9-2.8 5.8-5 11.8-5.7 18.2-0.2 1.9-0.3 3.9 0.2 5.8 0.9 3.1 3 4.3 6.7 3.6-1.1-3.5-0.4-6.7 0.2-9.9z"/>
					</g>
				</g>
			</g>
			<path id="&lt;Path&gt;" class="s4" d="m306.8 433.7c0 2.6 0 2.7-0.4 3.5-6.8 12-11 25.1-14.6 38.3-2.9 11.2-4.4 22.7-5.4 34.3-1 11.3-1.5 22.7-0.3 34.1 1.2 11.6 3.3 23.1 5.6 34.6 3.5 17.2 9.1 33.6 19.3 48.2 5.1 7.3 10.6 14.3 18.1 19.5 15 10.4 32.4 12.5 49.6 15.2 11.2 1.7 22.6 2 33.9 3.8 12.6 2 23.7 6.7 31.9 17.1 3.6 4.5 7.4 8.9 10.9 13.6 6.8 9.4 15.2 17.2 25.3 23.2 15.7 9.5 31.6 10.8 48.1 2.3 10.9-5.6 19.8-13.7 27.5-23.1 3.6-4.2 6.7-8.7 10.1-13.1 9.5-12.7 22.5-18.8 37.8-20.6 17.5-2 34.9-3.3 52.2-7 13.8-2.9 26.3-8.3 36.3-18.5 5.5-5.7 10-12.2 14-19.1 7.7-12.9 12-27.1 15.1-41.7 3.7-18.1 6.6-36.2 6.1-54.7-0.4-12.4-1.8-24.6-3.9-36.8-3-17.2-8.6-33.4-16.5-48.9-0.5-1.1-1.5-2.1-0.8-3.9 4.2 4.1 6.5 9.1 9.3 13.8 0.3-0.3 0.6-0.4 0.6-0.6 0.3-1.2 0.7-2.4 0.9-3.7 4.5-22.9 5.6-46.2 6.4-69.5 0.6-18-1.3-36-3.3-53.9-2-17.5-6.1-34.7-9.7-51.9-4.3-20.6-10.8-40.5-17.1-60.4-7.4-23.8-14.9-47.5-25.5-70.1-2.6-5.6-5.2-11.1-8.7-16.1-1.1 0.2-1.4 1-1.8 1.6-7.3 10-13.2 20.9-18.9 31.8-13.1 25-25.7 50.2-36.8 76.1-10.7 24.7-21.9 49.3-29.6 75.3-2 6.5-4 13-6 19.4-0.5 1.5-1.1 3.6-3.1 2.8-3.7-1.5-7.6-1.8-11.3-3.2-1-0.4-2.2-0.5-2.6-2.2 4.9-0.2 9.4 1.8 14.2 1.4 0.8-3.3 1.5-6.4 2.4-10.1-39.8-10.3-79.2-10.3-118.8 0 0.8 3 1.5 5.4 1.9 7.7 0.3 2.1 1.1 2.9 3.1 2.4 1-0.2 1.9-0.4 2.9-0.4 2.9 0 5.7-1.6 8.9-0.7-1 1.9-2.6 1.9-3.9 2.3-2.6 0.8-5.2 1.3-7.7 2-4.5 1.2-4.5 1.2-6-3.4-4.3-14.2-8.2-28.4-13.7-42.1-19.1-48.5-40.5-96-66.2-141.5-3.8-6.7-7.4-13.5-12.5-19.6-3.7 5.3-6.4 11-9 16.7-13.4 28.7-21.9 59.2-31.6 89.2-6.8 21.2-11.3 42.9-15.9 64.7-4.5 21.6-7 43.4-7.7 65.5-0.7 25.7 0.6 51.3 4.5 76.8 0.7 4.5 1.2 9.2 2.9 14.1 2.9-5.2 5.4-9.9 9.5-14.5z"/>
			<path id="&lt;Compound Path&gt;" fill-rule="evenodd" class="s1" d="m718.1 608.2c-6.1 16.1-16 30-29.7 40.9-11.2 9.1-24.7 12.9-38.6 15.5-14.2 2.6-28.5 3.6-42.8 5.1-5.8 0.6-11.5 1.7-17.1 3.5-8.5 2.7-14.4 8.7-19.3 15.6-6 8.5-12.2 16.7-19.8 23.8-7.4 6.8-15.5 12.5-25 15.6-15.6 5.1-31 4.4-45.8-3.3-14.8-7.8-25.7-19.5-35-33.1-5.1-7.6-10.9-14.5-19.8-18-6.2-2.4-12.9-3.5-19.5-4.1-18.4-1.6-36.7-3.3-54.6-7.9-15.4-3.9-28-12.2-38.2-24.6-14.8-17.8-22.6-38.5-26.9-60.9-2.6-13.5-4.9-27-5.3-40.7-0.3-11.2 0.5-22.4 1.8-33.5 1.9-16.2 5.8-31.8 11.9-46.8 0.4-1 0.3-1.8-0.1-2.8-3.5-8.8-4.3-18.3-5.7-27.7-2.5-17.3-3-34.7-3.3-52.2-0.3-13 0.9-25.9 1.8-38.9 2.1-28.2 7.9-55.8 15.2-82.9 10.3-38.3 21.7-76.3 38.2-112.5 2.7-6.1 5.7-12.1 9.5-17.7 2.6-3.9 4.8-4 7.5-0.2 10.1 14.3 18.5 29.5 26.6 45 18 34.5 34.2 69.9 48.9 106 4.9 11.8 8.6 24 12.3 36.2 0.3 1 0.7 2 0.9 2.6 40.5-10.6 80.6-10.6 121.1 0 2.2-6.7 4.3-13.7 6.5-20.6 7.7-23.2 18-45.3 27.9-67.5 11.2-25 23.3-49.5 36.6-73.4 5.4-9.7 10.9-19.5 17.7-28.4 2.7-3.6 4.9-3.7 7.4 0.2 5.6 8.4 9.7 17.7 13.8 26.9 10.7 24.6 17.8 50.5 26.3 75.9 9.1 27.1 14.2 55.2 19.6 83.3 2.4 12.5 3.2 25.3 4.1 38 0.7 9.6 1.5 19.1 1.2 28.7-0.8 24.2-1.9 48.3-7 72 0 0.2 0 0.5-0.1 0.7-3.2 5.8-1.7 11.4 0.6 17.2 5.9 14.9 8.2 30.5 9.9 46.3 3.4 34-1.7 66.9-13.7 98.7zm9.8-84.6c-0.4-12.4-1.8-24.6-3.9-36.8-3-17.2-8.6-33.4-16.5-48.9-0.5-1.1-1.5-2.1-0.8-3.9 4.2 4.1 6.5 9.1 9.3 13.8 0.3-0.3 0.6-0.4 0.6-0.6 0.3-1.2 0.7-2.4 0.9-3.7 4.5-22.9 5.6-46.2 6.4-69.5 0.6-18-1.3-36-3.3-53.9-2-17.5-6.1-34.7-9.7-51.9-4.3-20.6-10.8-40.5-17.1-60.4-7.5-23.8-14.9-47.5-25.5-70.1-2.6-5.6-5.2-11.1-8.7-16.1-1.1 0.2-1.4 1-1.8 1.6-7.3 10-13.2 20.9-18.9 31.8-13.1 25-25.7 50.2-36.8 76.1-10.7 24.7-21.9 49.3-29.6 75.3-2 6.5-4 13-6 19.4-0.5 1.5-1.1 3.6-3.1 2.8-3.7-1.5-7.6-1.8-11.3-3.2-1-0.4-2.2-0.5-2.6-2.2 4.9-0.2 9.4 1.8 14.2 1.4 0.8-3.3 1.5-6.4 2.4-10.1-39.8-10.3-79.2-10.3-118.8 0 0.8 3 1.5 5.4 1.9 7.7 0.3 2.1 1.1 2.9 3.1 2.4 1-0.2 1.9-0.4 2.9-0.4 2.9 0 5.7-1.6 8.9-0.7-1 1.9-2.6 1.9-3.9 2.3-2.6 0.8-5.2 1.3-7.7 2-4.5 1.2-4.5 1.2-6-3.4-4.3-14.2-8.2-28.4-13.7-42.1-19.1-48.5-40.5-96-66.2-141.5-3.8-6.7-7.4-13.5-12.5-19.6-3.7 5.3-6.4 11-9 16.7-13.4 28.7-21.9 59.2-31.6 89.2-6.8 21.2-11.3 42.9-15.9 64.7-4.5 21.6-7 43.4-7.7 65.5-0.7 25.7 0.6 51.3 4.5 76.8 0.7 4.5 1.2 9.2 2.9 14.1 2.9-5.2 5.4-9.9 9.5-14.5 0 2.6 0 2.6-0.4 3.5-6.8 12-11 25.1-14.6 38.3-2.9 11.2-4.4 22.7-5.4 34.3-1 11.3-1.5 22.7-0.3 34.1 1.2 11.6 3.3 23.1 5.6 34.6 3.5 17.2 9.1 33.6 19.3 48.2 5.1 7.3 10.6 14.3 18.1 19.5 15 10.4 32.4 12.5 49.6 15.2 11.2 1.7 22.6 2 33.9 3.8 12.6 2 23.7 6.7 31.9 17.1 3.6 4.5 7.4 8.9 10.9 13.6 6.8 9.4 15.2 17.2 25.3 23.2 15.7 9.5 31.6 10.8 48.1 2.3 10.9-5.6 19.8-13.7 27.5-23.1 3.6-4.2 6.7-8.7 10.1-13.1 9.5-12.7 22.5-18.8 37.8-20.6 17.5-2 34.9-3.3 52.2-7 13.8-2.9 26.3-8.3 36.3-18.5 5.5-5.7 10-12.2 14-19.1 7.7-12.9 12-27.1 15.1-41.7 3.7-18.1 6.6-36.2 6.1-54.7z"/>
			<path id="&lt;Path&gt;" class="s5" d="m692.4 345.2c-1.1-15.2-2.5-30.5-4.2-45.7-1.6-14.8-3.1-29.6-5.3-44.2-3.4-22.3-8.3-44.3-14.9-65.8-2.1-6.9-4-13.9-7.2-20.4-0.4-0.8-0.8-1.8-2-1.9-1.2 0-1.5 1.1-1.8 1.9-0.6 1.3-1.1 2.6-1.6 3.9-19.5 51-37.5 102.6-56.3 153.9-1.7 4.7-2.9 9.7-5.6 14.1 0.4 1.4 1.5 2 2.5 2.8 13 8.9 25.9 17.9 38.9 26.9 18.6 12.8 36.5 26.6 52.8 42.3 0.8 0.8 1.5 1.7 2.7 1.1 1.1-0.4 1.3-1.5 1.6-2.6 1.6-7.6 1.3-15.4 1.8-23.2 0.8-14.4-0.3-28.7-1.4-43.1z"/>
			<path id="&lt;Path&gt;" class="s5" d="m418.2 337.6c-9.3-25.8-18.6-51.6-28-77.4-10.6-29.4-21.2-58.8-32.4-87.9-0.7-1.8-0.6-5-3.2-4.9-2.3 0.1-2.7 3.1-3.4 5-5.1 13.9-9.2 28.3-12.7 42.7-4.3 18-7.6 36.1-9.7 54.5-1.4 12.3-3 24.5-4.3 36.7-1.1 10.6-1.8 21.2-2.8 31.8-1.3 13.5-1.7 27-1.7 40.5 0 6-0.1 11.9 0.1 17.9 0.1 4.7 0.7 9.3 1.2 14 0.2 1.4 0.2 3.1 2 3.7 1.5 0.5 2.2-0.9 3.1-1.7 5.2-5.3 10.8-10 16.4-14.8 22.9-19.4 48.4-35.3 72.8-52.6 4.2-3 4.3-2.9 2.6-7.5z"/>
			<g id="&lt;Group&gt;">
				<path id="&lt;Path&gt;" class="s2" d="m685 306.4c-3.5 0.2-5.7-2-6.4-6.1-0.6-3.4 0.9-5.5 4.9-6.7 0.5 4.4 1 8.6 1.5 12.8z"/>
				<path id="&lt;Path&gt;" class="s2" d="m681 271.9c-3.6-0.2-6.4-2.8-6.9-6.2-0.7-4 0.4-5.8 5-7.6 0.7 4.8 1.3 9.2 1.9 13.8z"/>
				<path id="&lt;Path&gt;" class="s2" d="m675.2 235c-6.2-3-7.5-8.9-2.9-13.4 1 4.5 1.9 8.7 2.9 13.4z"/>
				<path id="&lt;Path&gt;" class="s2" d="m341.1 221.6c4.9 4.2 3.5 10.7-2.8 13.2 1-4.5 1.9-8.7 2.8-13.2z"/>
				<path id="&lt;Path&gt;" class="s2" d="m334.2 258.4c3.7 0.7 5.5 2.5 5.6 5.5 0 3.7-2.6 7-7.1 8.2 0-4.8 1.2-9.2 1.5-13.7z"/>
				<path id="&lt;Path&gt;" class="s2" d="m329.8 293.9c3.4 0.2 5.3 2.3 5.2 5.5-0.3 4.5-2.6 7.2-6.5 7.1q0.7-6.3 1.3-12.6z"/>
			</g>
			<g id="&lt;Group&gt;">
				<path id="&lt;Compound Path&gt;" fill-rule="evenodd" class="s1" d="m593.5 341c2.7-4.4 3.9-9.4 5.6-14.1 18.8-51.3 36.8-102.9 56.3-153.9 0.5-1.3 1-2.6 1.6-3.9 0.3-0.8 0.6-1.9 1.8-1.9 1.2 0.1 1.6 1.1 2 1.9 3.2 6.5 5.1 13.5 7.2 20.4 6.6 21.5 11.6 43.5 14.9 65.7 2.2 14.7 3.7 29.5 5.3 44.3 1.7 15.2 3.1 30.5 4.2 45.7 1.1 14.4 2.2 28.7 1.4 43.1-0.5 7.8-0.2 15.6-1.8 23.2-0.3 1.1-0.5 2.2-1.6 2.6-1.2 0.6-1.9-0.3-2.7-1.1-16.3-15.7-34.2-29.5-52.8-42.3-13-9-25.9-18-38.9-26.9-1-0.8-2.1-1.4-2.5-2.8zm65.3-168.3c-19.7 56.9-40.6 112.4-60.5 168.1 30.8 21.9 63.3 41.2 90 68.2 3.5-8.6 1.4-74.1-3.1-98.3-5.8-0.5-8.7-2.9-9.8-8.2-1.2-6.1 0.4-8.7 7.8-12.4-0.6-4.9-1.2-9.8-1.7-14.7-7.6-1.8-10.4-4.5-10.7-9.9-0.3-6.2 1-8 7.9-10.5-0.9-5.3-1.9-10.7-2.8-16.2-0.2-1.1-1-1.1-1.9-1.3-4.4-1.1-6.7-4.3-7.3-8.6-0.5-3.7 0.3-7.1 3.6-9.2 1.1-0.8 1.3-1.6 1-2.7-3.6-14.6-7.4-29.2-12.5-44.3zm20.3 85.4c-4.6 1.8-5.7 3.6-5 7.6 0.5 3.4 3.3 6 6.9 6.2-0.6-4.6-1.2-9-1.9-13.8zm4.4 35.5c-4 1.2-5.5 3.3-4.9 6.7 0.7 4.1 2.9 6.3 6.4 6.1-0.5-4.2-1-8.4-1.5-12.8zm-8.3-58.6c-1-4.7-1.9-8.9-2.9-13.5-4.6 4.6-3.3 10.5 2.9 13.5z"/>
				<path id="&lt;Compound Path&gt;" fill-rule="evenodd" class="s1" d="m320 378.6c0-13.5 0.4-27 1.7-40.5 1-10.6 1.7-21.2 2.8-31.8 1.3-12.2 2.9-24.4 4.3-36.7 2.1-18.4 5.4-36.5 9.7-54.5 3.5-14.4 7.6-28.7 12.7-42.7 0.7-1.9 1.1-4.9 3.4-5 2.6-0.1 2.5 3.1 3.2 4.9 11.2 29.1 21.8 58.5 32.4 87.9 9.4 25.8 18.7 51.6 28 77.4 1.7 4.6 1.6 4.5-2.6 7.5-24.4 17.3-49.9 33.2-72.8 52.6-5.6 4.8-11.2 9.5-16.4 14.8-0.9 0.8-1.6 2.2-3.1 1.7-1.8-0.6-1.8-2.3-2-3.7-0.5-4.7-1.1-9.3-1.2-14-0.2-6-0.1-11.9-0.1-17.9zm95.3-37.8c-20.1-55.8-40.9-111.3-60.7-168.1-5.1 15.7-9.2 30.8-12.8 46.1 4.7 2.3 5.7 6.4 4.9 10.9-0.7 4-3.1 7-7.4 7.8-1.8 0.4-1.8 1.6-2 2.8-0.9 4.9-1.7 9.8-2.5 14.7 6.4 2.4 8.5 4.9 8.1 9.8-0.4 5.9-3.4 8.9-10.8 10.6-0.6 5-1.2 10-1.8 15 6.1 2.1 8.5 5 8.2 9.6-0.4 6.5-3.4 9.6-10.6 10.9-2.7 32.5-6.9 65-3.2 98.5 27.2-27.4 59.7-46.7 90.6-68.6zm-82.6-68.7c4.5-1.2 7.1-4.5 7.1-8.2-0.1-3-1.9-4.8-5.6-5.5-0.3 4.5-1.5 8.9-1.5 13.7zm-4.2 34.4c3.9 0.1 6.2-2.6 6.5-7.1 0.1-3.2-1.8-5.3-5.2-5.5q-0.6 6.3-1.3 12.6zm12.6-84.8c-0.9 4.4-1.8 8.6-2.8 13.1 6.3-2.5 7.7-9 2.8-13.1z"/>
			</g>
			<path id="&lt;Compound Path&gt;" fill-rule="evenodd" class="s6" d="m695.5 504.6c-0.3 9.8-1.8 18.9-4.2 27.9-4.4 17.4-11.9 33.1-24.9 45.6-14.5 14.1-31.9 23.6-51.3 29.5-12.7 3.9-25.7 6.4-38.1 11.5-8.7 3.6-17.4 7.3-25.2 12.9-2.1 1.6-4.3 3.1-5.9 5.3-0.6 0.8-1.4 1.7-2.7 1.3-1.4-0.3-1.1-1.4-1.2-2.5-0.7-6.7 0.5-13.1 1.4-19.7 1.4-9.7 3.2-19.4 6.4-28.8 4.9-14.6 12.7-27.5 23.6-38.3 10.8-10.7 23.9-17.1 39.2-18.6 11.1-1.1 22.2-1.2 33.2-1.9 16.2-0.9 30.3-7 42.3-18 2.2-2.1 4.2-4.6 7.4-6.2zm-103.2 92.3c12.8-3.6 25.9-6.1 38.2-11.1 16-6.3 30.6-14.6 40.5-29.3 4.6-6.9 7.6-14.4 10.3-22.4-0.9 0-1.2 0-1.3 0.1q-0.5 0.1-0.9 0.4c-10.5 7.3-22.1 10.5-35 9.7-9.3-0.7-18.7-1.4-28 0.6-17 3.8-31.4 12.1-40.7 27.3-7.7 12.6-14.6 25.7-19.4 39.7-0.4 1.1-2 2.2-0.2 3.6 1.9 1.4 2.5-0.5 3.4-1.2 10-7.8 21-13.9 33.1-17.4z"/>
			<path id="&lt;Compound Path&gt;" fill-rule="evenodd" class="s6" d="m470.6 638.5c-1 0.4-1.8 0.1-2.5-0.8-5.9-6.5-13.6-10.4-21.4-14.2-14-6.8-29-10.7-44-14.7-17.7-4.7-33.8-12.7-48.2-24.1-17.4-13.7-27.4-31.9-32.6-53.1-1.8-7.3-3.5-14.7-3.4-22.3 0-1.4-0.5-2.7-0.8-4.5 2.5 0.3 3.4 2 4.7 3.2 10.4 10.4 22.7 17.5 37.4 19.9 9.2 1.5 18.6 1.5 28 1.7 19.7 0.3 37.8 5.1 52.1 19.5 11.1 11 19 24.2 24 39.1 3.8 11.3 5.4 23.1 7.2 34.9 0.7 4.3 0.5 8.7 0.6 13 0 1 0.1 2-1.1 2.4zm-12.7-25.8c-5.4-15-12.9-28.9-21-42.5-1.5-2.6-3.4-4.9-5.5-7-15.3-14.8-33.7-21.2-54.8-19.3-15 1.4-29.3 0-42-9.1-0.6-0.4-1.2-1.2-2.2-0.2 0.5 1.5 1 3.1 1.6 4.8 6.1 17.2 17 30.1 33.1 39 12.9 7.1 26.6 11.8 40.8 15.1 14.9 3.4 29.2 8.3 41.7 17.4q3.6 2.6 7.1 5.3c1.6-0.9 1.7-2 1.2-3.5z"/>
			<path id="&lt;Path&gt;" class="s6" d="m506.6 666.4c7.4 0.5 14.6 1.4 21.6 4 6.6 2.5 10 8.5 8.1 14.2-0.9 2.5-2.4 4.5-4.9 5.6-1.5 0.7-3.1 1.3-4.7 1.8-6.5 2-12.5 5-17.7 9.3-1.6 1.3-3 1.3-4.5 0-5.6-4.8-12.2-7.6-19.2-9.8-3.3-1.1-6.3-2.6-7.8-6-2.5-5.8 0.8-12.4 7.6-15 6.9-2.7 14.2-3.6 21.5-4.1z"/>
			<g id="&lt;Group&gt;">
				<path id="&lt;Compound Path&gt;" fill-rule="evenodd" class="s7" d="m363.8 425.5c-0.2-6.3 3-11.6 6.4-16.7 8.1-12 15.9-14.2 39.3-11.6-0.2-2-0.5-4-0.8-5.9-2.5-17.1 9.2-27 24.7-25.1 13.2 1.6 23.7 7.9 31.1 19 4.1 5.9 5.5 12.6 3.9 19.7-1.2 5.1-4.5 8.4-9.4 10-7.2 2.3-14.4 1.8-20-3-4.5-3.9-9.3-5-14.6-5.3-1.6-0.1-3.1-1.1-5-0.5 2.1 3.1 4.7 5.6 7.2 8.1 4.5 4.7 9.4 9.1 13.5 14.1 12.4 15.2 15.7 32.2 8.8 50.8-2.6 7.2-1.9 13.6 2.2 20 4 6.4 8.3 12.4 13.3 18 1.2 1.3 2.4 2.6 3.5 4-1.2 1.2-1.9 0.2-2.6-0.3-9.3-6.5-16.4-14.8-21.7-24.8-3-5.6-2-11.3-0.2-17 1.8-5.7 4-11.2 4-17.3 0.2-11.3-4.2-20.9-11.2-29.5-5.5-6.6-11.4-13-17-19.5-0.7-0.8-1.6-1.5-2-2.5-4.1-8.5-12.2-9.3-19.9-9.9-16.6-1.3-28.5 8.2-32.1 24.9 0 0.2-0.3 0.3-0.4 0.5q-0.5-0.1-1-0.2zm74.9-19.3c4 3.7 8.8 5.8 14 6 6.4 0.2 11.4-2.9 12.7-8.3 1.6-6.6 0.1-12.7-3.9-18.1-6.3-8.8-15.2-13.9-25.5-16.1-6.5-1.4-13-0.6-18.4 4.1-7.1 6.2-6 17-3.4 24 0.1 0.5 0.6 0.9 1.1 1.1 4.3 1.4 8.8 2.1 13.6 2.5-3.9-10.9-3.2-15.8 2.3-18.3 5.4-2.4 12.8 0.3 15.9 5.9 3.6 6.3 1.5 10.4-8.4 17.2zm-9-14.9c0.1 3.3 3.5 9.5 5.2 9.5 3.9 0 9.9-4.8 9.9-7.9-0.1-3.7-4.8-7.5-9.4-7.5-3.4 0.1-5.8 2.6-5.7 5.9z"/>
				<path id="&lt;Compound Path&gt;" fill-rule="evenodd" class="s7" d="m603.6 397.4c13.4-2.7 26.2-3.9 36.2 7.2 5.4 6 9.6 12.6 10 21.8-1.7-1.4-1.6-2.6-2-3.7-3.8-10.5-9.8-19.2-21.2-22-8.6-2.2-17.1 0.2-25.3 3-0.4 0.2-0.8 0.7-1.1 1.1-5.8 9-13.4 16.5-20.5 24.5-7.2 8-12.1 17.1-13.6 28-0.8 6.2 0.9 12 2.7 17.8 1.4 4.2 2.9 8.4 2.9 13 0 3-0.6 5.9-2.1 8.5-5.3 9.6-12.2 17.7-21.1 24.1-0.6 0.4-1.3 0.7-1.9 1-0.2 0.1-0.4-0.1-0.7-0.2-0.3-1.5 1.1-2.1 1.9-3 6-6.5 11.2-13.5 15.7-21.3 3-5.4 3.5-10.7 1.6-16.5-1.7-5.2-3.3-10.5-3.8-16-1.2-11.8 2.5-22.3 8.7-32 4.6-7.2 11.3-12.7 17.2-18.8 2.3-2.5 4.8-4.8 7.1-8.1-4.9 0.6-9.3 1.7-13.7 1.5-1.1-0.1-1.7 1.2-2.4 1.9-6.9 6.2-14.6 8.5-23.6 5.7-6.1-1.9-9.8-7-9.9-13.4-0.5-15.7 9.1-24.7 21.7-31.3 7.5-3.8 15.5-5.7 24-3.4 9.2 2.6 14.4 9.5 14.5 19 0 3.8 0 7.5-1.3 11.6zm-18.9 3.9c1.5 0.4 2.9-0.4 4.4-0.5 10.2-0.8 11.9-2.7 12-13.1q0-0.8 0-1.6c-0.1-9.4-6.7-16.1-16.1-16.8-9.1-0.6-16.9 2.7-24.1 7.8-7.2 5-12.6 11.4-13.4 20.7-0.4 4.9 0.4 9.3 4.9 12.3 6.3 4 17.9 1.7 22.2-4.1-8.8-5.1-11.6-10.2-8.7-16.2 2.8-5.8 10.1-9 15.8-6.9 5.9 2.2 6.6 6.4 3 18.4zm-1-10.2c0-3.4-2.3-5.7-5.8-5.7-4.7 0-8.9 3.5-8.9 7.4-0.1 3.4 5.2 7.8 9.5 8 1.8 0.1 5.3-6.2 5.2-9.7z"/>
				<path id="&lt;Path&gt;" class="s7" d="m537.9 590.2c-0.9-4.6 0.5-8.8 1.3-13 4.2-22.3 14.6-41.3 30-57.9 7.7-8.4 16.2-16 24.7-23.6 10.5-9.5 19.5-20.3 26.4-32.7 3.8-6.6 6.1-13.7 5.8-21.6-0.3-7.2-3.7-12.9-9.1-14.8-6.5-2.3-13.4-0.3-17.9 5.6-6.1 7.9-9 17.1-9.5 26.9-0.2 3.4 0.8 6.8 2.3 9.8 2.4 4.7 7.6 5.8 11.5 2.3 4.7-4.3 7.7-9.6 8.2-16.1 0.4-5.4-2-9.4-6.8-12-0.8-0.5-2.1-0.8-1.8-2.2 0.3-1.5 1.5-1.6 2.7-1.7 2.7-0.3 4.9 0.5 6.7 2.3 4.4 4.2 6.1 9.3 4.9 15.1-1.9 9.3-6.8 16.3-16.6 18-5.9 1-9.7-0.6-12-5.9-2.7-6.2-3.1-12.6-1.7-19.1 1.7-8.6 4.3-17 11.2-23.1 6.3-5.7 13.5-7.3 21.5-3.9 7.5 3 10.1 9.4 11.4 16.6 2.1 12-1.9 22.7-8.1 32.6-7.1 11.4-16.7 20.4-27 28.8-14.1 11.5-27.1 24.1-37.2 39.4-6.7 10.1-10.4 21.6-14.7 32.8-1.9 4.9-3.4 9.8-4.5 14.9-0.2 1-0.3 1.9-1.7 2.5z"/>
				<path id="&lt;Path&gt;" class="s7" d="m475.2 590.2c-1.2-1.1-1.2-2.4-1.6-3.6-6.3-21.1-13.2-42-28.2-59-10-11.4-21.2-21.5-32.9-31.3-11.7-9.7-22-20.8-27.5-35.4-3.3-8.9-4.4-17.9-1.1-27.2 4.4-12.4 18.6-16.8 29.4-8.9 7.8 5.7 10.8 14.2 12.9 23.1 1.5 6.2 1.4 12.3-0.5 18.6-2.5 8.3-9.9 9.8-16.5 7.2-9-3.6-14.8-14.4-12.9-24 1.1-6 6.4-10.8 11.4-10.5 1.2 0 2.4 0.3 2.8 1.6 0.4 1.4-0.9 1.7-1.8 2.2-6 3.7-7.9 8.5-6.3 15.5 1.1 4.6 3.5 8.4 6.7 11.8 4.7 4.9 11 3.4 13.2-3 1.7-5 2-10.2 0.7-15.4-1.9-7.9-4.2-15.7-10.3-21.6-4.2-4-9.1-5.6-15-4-4.3 1.1-7.1 3.8-8.7 8-3.7 9.5-1.1 18.3 3.2 26.7 7 13.8 17 25.5 28.6 35.7 12.3 10.9 24.2 22.2 34.1 35.5 10.6 14.3 16.9 30.5 20 48.1 0.4 2.2 0.8 4.4 1.1 6.6 0.2 1 0.6 2.3-0.8 3.3z"/>
				<path id="&lt;Path&gt;" class="s7" d="m490.8 498.5c-0.4-4.4-0.6-8.8-1.4-13.2-1.4-7.1-5.2-13-9.5-18.5-5.9-7.6-12.5-14.6-16.9-23.3-1.5-2.8-2.9-5.7-3.8-8.7-2.3-7-0.3-12.8 5.2-17.5 5.8-4.9 12.8-7.8 19.8-10.8 5.7-2.5 7.5-6.3 6.1-12.3-0.9-3.9-2.5-7.5-4.7-10.7-9.4-13.7-21.7-23.6-37.4-29.2-5.3-1.9-10.8-1.9-16.3-1.1-1 0.2-1.9 0.4-3.3-0.3 2.4-2 5.3-2.2 7.9-2.6 7.9-1.3 15.2 0.9 22.2 4.4 12.7 6.3 23.5 15 31.2 27.1 3.1 4.7 5.3 9.9 5.5 15.7 0.3 5.9-2.3 10.1-7.2 12.9-4.5 2.6-9.2 5-13.7 7.6-11.6 6.7-12.9 11.2-6.9 23.1 3.2 6.4 7.5 12 11.8 17.8 5.2 7 9.9 14.4 11.2 23.3 0.8 5.4 1.5 10.8 0.2 16.3z"/>
				<path id="&lt;Path&gt;" class="s7" d="m522.6 499.1c-1.7-14.3 1.4-26.5 9.5-37.4 5.3-7.3 11.1-14.3 14.8-22.7 4.3-9.5 3.1-14.2-5.9-19.7-4.4-2.8-9-5.2-13.6-7.6-8.6-4.5-11.2-10.6-8.4-19.9 3.3-10.9 10.5-19.1 19.1-26.2 8.3-7 17.4-12.5 28.2-15 5.8-1.3 11.6-0.6 17.2 1.2 0.4 0.1 1 0.4 1 1.1-0.4 0.8-1.1 0.6-1.7 0.5-10.9-2.3-20.7 0.9-29.8 6.5-11.5 7.2-21.7 15.8-27.7 28.4-0.9 1.9-1.6 3.8-2.1 5.7-1.6 5.9 0.4 10 6 12.4 5.8 2.5 11.5 5 16.8 8.5 9.2 6.2 11.3 13.4 6.9 23.7-4.2 10.1-11.1 18.4-18.1 26.6-8 9.4-12.2 19.9-11.7 32.4 0 0.2-0.2 0.5-0.5 1.5z"/>
				<path id="&lt;Path&gt;" class="s7" d="m408.9 621.9c-0.6 0.6-1.1 0.2-1.7-0.1-9.4-4.7-19.1-3.8-29-1.8-8.6 1.7-17.2 3.8-26.1 3.6-19.4-0.5-35.4-11.1-42.1-28.4-2-5.1-3-10.5-1.8-16 2.1-9.1 9.5-13.3 18.4-10.2 8.8 3.1 13.9 9.7 15.6 18.7 1.4 7.4-5.1 13.2-12.4 11.5-2-0.4-3.5-1.6-4.6-3.3-0.6-1.1-1.2-2.3-0.2-3.6 1-1.3 2.1-0.3 3.1 0.1 4.4 1.7 8.4-0.8 8.5-5.5 0.1-7.4-6.8-15.1-14.1-15.8-6.7-0.6-11.6 4.1-11.5 11.5 0.2 11.2 5.4 20 13.8 26.9 9.2 7.6 20.1 9 31.4 8 10.5-1 20.9-4 31.6-3.6 7.2 0.3 13.7 2.6 19.9 6 0.8 0.4 1.6 0.9 1.2 2z"/>
				<path id="&lt;Path&gt;" class="s7" d="m604.5 621.9c-0.1-1.5 1.2-1.8 2.1-2.4 9.1-5.4 19-6.2 29.3-5.2 9.7 0.9 19.2 3.8 29.1 3.4 17.4-0.6 31.4-10.7 36.2-26.3 1.1-3.7 1.3-7.3 1-11-0.6-6.7-6.6-10.7-13.1-8.8-7.3 2.1-12.1 8.3-12 15.4 0.1 4.6 3.8 7.1 8.1 5.5 1.1-0.4 2.4-1.7 3.3 0 0.8 1.5 0.3 2.9-0.8 4.2-2.5 3-5.9 3.2-9.3 2.3-3.7-0.9-6.4-3.4-7-7.5-1.3-9.4 7.2-21 17-22.9 10.6-2.2 18 4.7 17.2 16-1.1 17.2-14.2 32.4-31.3 37.1-10.8 2.9-21.5 2-32.2-0.3-6.6-1.3-13.1-3-19.8-3.1-5.2 0-10.2 0.9-14.9 3-0.9 0.4-1.7 1.3-2.9 0.6z"/>
				<path id="&lt;Path&gt;" class="s7" d="m413.1 515c-1.4 0.6-1.9 0.2-2.4-0.2-5.9-5.1-12.8-8.9-18.9-13.6-10.1-7.9-18.3-17.2-20.9-30.3-0.5-3.1-1.5-6.2-0.4-9.5 0.4-1.2 1-2.1 2.3-2.1 1.4 0 2 0.9 2.3 2.3 0.8 3.5 1.6 7 2.7 10.4 3.9 12.3 11.9 21.6 21.4 30 4.7 4.1 9.1 8.5 13.9 13z"/>
				<path id="&lt;Path&gt;" class="s7" d="m600.5 515c4-3.8 7.8-7.5 11.7-11.2 4.1-3.8 8.3-7.4 11.9-11.6 7.5-8.5 12-18.5 14.1-29.5 0.3-1.7 0.5-3.5 2.6-3.4 2.1 0.1 2.5 2 2.5 3.8 0 10-3.3 18.8-9.6 26.4-4.3 5.3-9.3 10-15 13.8-5.3 3.7-10.5 7.5-15.8 11.3-0.6 0.4-1 1.1-2.4 0.4z"/>
				<path id="&lt;Path&gt;" class="s7" d="m340.1 600.9c3.7 2 7.2 4 11.3 4.9 6.9 1.5 13.5 0.6 20.1-1.1 1.5-0.4 3.2-0.8 3.9 1 0.7 2-0.5 3.3-2.2 4.1-8.8 4.4-26.8 0-32.8-8-0.1-0.2-0.2-0.6-0.3-0.9z"/>
				<path id="&lt;Path&gt;" class="s7" d="m673.6 600.8c-1.5 2.7-3.8 4.1-6 5.5-8.1 5-16.7 6.6-26 4-1.1-0.4-2.2-0.8-2.9-1.7-0.8-0.9-0.9-2-0.5-3 0.5-1.3 1.7-1.3 2.7-1.1 1.6 0.2 3.1 0.7 4.7 1 9.6 2 18.8 1.8 26.9-4.8 0.1-0.1 0.3 0 1.1 0.1z"/>
			</g>
			<g id="&lt;Group&gt;">
				<path id="&lt;Path&gt;" class="s6" d="m507.2 475.8c-2.1-0.8-1.4-2.2-1.7-3.2-2.5-8.9-6-17.3-11.7-24.7-0.9-1.2-1.9-2.5-3.3-3.3-2-1.2-1.9-2.6-0.4-4.1 8.5-8.1 12.5-18.4 14.3-29.7 0.1-0.5 0.2-1 0.3-1.5 0.4-1.2 0.4-2.8 2.2-2.6 1.4 0.2 1.7 1.4 1.9 2.6 0.8 3.6 1.6 7.3 2.5 10.9 2 7.6 6 14.1 11.4 19.6 2.1 2.1 2.2 3.3-0.2 5.3-4.9 4-7.5 9.7-10.2 15.3-2.4 4.8-3.6 10.1-5.1 15.4z"/>
				<path id="&lt;Path&gt;" class="s6" d="m345.2 502.5c-0.2 2.3-1.4 3.7-3.8 3.9-2.3 0.1-4.4-2.2-4.1-4.7 0.2-2.2 1.4-3.5 3.7-3.5 2.4 0.1 4.3 2.1 4.2 4.3z"/>
				<path id="&lt;Path&gt;" class="s6" d="m668.3 502.3c0-2.2 2-4.1 4.3-4.1 2.5 0.1 3.5 1.6 3.5 4 0 2.6-1.5 3.9-3.9 4.1-2.2 0.3-4-1.7-3.9-4z"/>
			</g>
			<path id="&lt;Compound Path&gt;" fill-rule="evenodd" class="s1" d="m681.3 534.1c-2.7 8-5.7 15.5-10.3 22.4-9.9 14.7-24.5 23-40.5 29.3-12.3 5-25.4 7.5-38.2 11.1-12.1 3.5-23.1 9.6-33.1 17.4-0.9 0.7-1.5 2.6-3.4 1.2-1.8-1.4-0.2-2.5 0.2-3.6 4.8-14 11.7-27.1 19.4-39.7 9.3-15.2 23.7-23.5 40.7-27.3 9.3-2 18.7-1.3 28-0.6 12.9 0.8 24.5-2.4 35-9.7q0.4-0.3 0.9-0.4c0.1-0.1 0.4-0.1 1.3-0.1zm-5.3 6.6c-1 0.6-1.4 0.9-1.9 1.1-6.5 4.2-13.4 7-21.2 7-6.6 0-13.3 0.1-19.8-0.3-16.1-1-29.9 4.3-42.5 13.7-7.7 5.7-12.7 13.4-17.7 21.3-5.3 8.4-9.6 17.1-13.7 26.8 0.9-0.6 1.2-0.8 1.5-1.1 9.4-8.6 20.4-14.1 32.5-17.6 9.3-2.6 18.8-4.6 28-7.7 17.7-6.1 34.3-14.1 46.2-29.4 3.2-4.1 6.3-8.3 8.6-13.8z"/>
			<path id="&lt;Compound Path&gt;" fill-rule="evenodd" class="s1" d="m456.7 616.2q-3.5-2.7-7.1-5.3c-12.5-9.1-26.8-14-41.7-17.4-14.2-3.3-27.9-8-40.8-15.1-16.1-8.9-27-21.8-33.1-39-0.6-1.7-1.1-3.3-1.6-4.8 1-1 1.6-0.2 2.2 0.2 12.7 9.1 27 10.5 42 9.1 21.1-1.9 39.5 4.5 54.8 19.3 2.1 2.1 4 4.4 5.5 7 8.1 13.6 15.6 27.5 21 42.5 0.5 1.5 0.4 2.6-1.2 3.5zm-2.9-6.3c-0.8-3.7-2.6-6.4-3.9-9.2-4.9-11-10.7-21.5-18.6-30.4-13.4-14.9-30.2-22.8-50.7-21.7-5.6 0.2-11.3 0.4-17 0.4-9.4 0.1-17.9-2.6-25.9-7.8 6.7 13 16.1 23.5 28.7 31 14.4 8.6 30.2 13.6 46.4 17.4 12.8 3 24.9 7.8 35.5 15.8 1.8 1.3 3.4 2.8 5.5 4.5z"/>
		</g>
	</g>
</svg>